<?xml version="1.0" encoding="UTF-8"?>
<svg version="1.1" xmlns="http://www.w3.org/2000/svg" width="512" height="512">
<path d="M0 0 C8.12341381 3.55399354 12.07213573 12.39248603 15.32055664 20.21435547 C27.68651267 52.05903197 30.40026933 87.54071298 33.88671875 121.234375 C33.98133896 122.14662338 34.07595917 123.05887177 34.17344666 123.99876404 C34.92405009 131.2441592 34.92405009 131.2441592 35.25976562 134.58514404 C35.50474996 137.01832137 35.75750527 139.45058461 36.01171875 141.8828125 C36.1147657 142.94009552 36.1147657 142.94009552 36.21989441 144.01873779 C38.89391326 169.13614892 54.72511606 194.26203754 73 211 C75.67322559 213.1346809 78.44582417 215.10430446 81.25 217.0625 C82.84962826 218.19827582 84.44856406 219.3350274 86.046875 220.47265625 C86.86478516 221.05289551 87.68269531 221.63313477 88.52539062 222.23095703 C92.55056748 225.10846605 96.52404822 228.05504799 100.5 231 C114.22917241 241.14446593 128.09584654 251.0972026 142 261 C145.56170575 257.67850232 148.31894588 254.0134575 151.125 250.0625 C151.56714844 249.45470703 152.00929687 248.84691406 152.46484375 248.22070312 C154.81855497 244.92479632 156.69135587 241.87446886 158 238 C157.19820312 237.42894531 156.39640625 236.85789062 155.5703125 236.26953125 C147.24014332 230.33098306 138.93763434 224.35495912 130.6484375 218.359375 C127.57380966 216.13572563 124.49559514 213.91719501 121.4140625 211.703125 C114.00638354 206.37709357 106.62405592 201.01999908 99.3125 195.5625 C98.67747559 195.09062256 98.04245117 194.61874512 97.38818359 194.13256836 C84.82478233 184.70584408 72.88793583 173.17244064 70 157 C69.86399072 151.92765403 70.10548252 148.23653887 73.125 144.0625 C82.37394504 137.42738725 92.600852 137.94073665 103.421875 139.62109375 C123.07842328 143.17016332 142.04470791 150.39606458 160 159 C160.64775391 159.30341309 161.29550781 159.60682617 161.96289062 159.91943359 C178.47417315 167.66902997 195.59621158 176.48814575 209 189 C209.64582031 189.57878906 210.29164063 190.15757812 210.95703125 190.75390625 C223.59860743 202.62431874 230.2592843 218.41073907 234 235 C234.33 235 234.66 235 235 235 C235.29390625 233.5459375 235.29390625 233.5459375 235.59375 232.0625 C240.17767595 210.93600205 250.97606737 193.15833269 269.16015625 180.86328125 C273.02620408 178.43038471 276.99698236 176.19830189 281 174 C281.84256348 173.5369043 282.68512695 173.07380859 283.55322266 172.59667969 C356.67496376 132.76945057 356.67496376 132.76945057 387.30859375 139.5078125 C391.42375545 141.04767946 394.45189644 143.47762156 397 147 C399.43235211 154.73800905 397.30309147 161.85588502 394 169 C391.90584897 172.54589341 389.55314532 175.77318662 387 179 C386.57332031 179.59039062 386.14664062 180.18078125 385.70703125 180.7890625 C377.01569935 192.07442269 362.78043953 200.14521892 351.31445312 208.34277344 C347.53412854 211.04961345 343.76771546 213.7756519 340 216.5 C338.51958694 217.56908754 337.03911796 218.63809764 335.55859375 219.70703125 C332.36219386 222.01542629 329.16710213 224.32562051 325.97265625 226.63671875 C325.15087891 227.23097656 324.32910156 227.82523438 323.48242188 228.4375 C321.90397195 229.57897791 320.32583215 230.72088482 318.74804688 231.86328125 C318.03841797 232.37632812 317.32878906 232.889375 316.59765625 233.41796875 C315.97383057 233.86938232 315.35000488 234.3207959 314.70727539 234.78588867 C313.15890613 235.88699554 311.58087009 236.94608661 310 238 C311.61433729 243.13561051 314.76834428 246.97643918 318 251.1875 C318.81984375 252.27321289 318.81984375 252.27321289 319.65625 253.38085938 C322.65503065 257.33907756 322.65503065 257.33907756 326 261 C326.45101074 260.67427002 326.90202148 260.34854004 327.36669922 260.01293945 C328.7391657 259.02171366 330.1116441 258.03050437 331.48413086 257.03930664 C333.10221768 255.87064248 334.72021647 254.70185644 336.33813477 253.53295898 C340.40181394 250.59731798 344.46652314 247.66314716 348.53515625 244.734375 C358.64101517 237.4560969 368.69708871 230.11338415 378.70263672 222.69775391 C380.95370859 221.0342094 383.21244535 219.38156604 385.47265625 217.73046875 C409.02138706 200.45083912 426.03069642 176.2534023 431.53515625 147.14135742 C432.50898763 140.56032361 433.00154655 133.9229999 433.57366943 127.29721069 C442.87972886 20.7389062 442.87972886 20.7389062 463.5859375 2.75390625 C467.58920899 -0.15461948 470.01104959 -0.49889504 475 0 C481.40271897 3.45746825 483.42055286 9.22575695 485.46826172 15.99609375 C487.20648324 22.54674674 488.14200749 29.28625527 489 36 C489.08846191 36.6796582 489.17692383 37.35931641 489.26806641 38.05957031 C490.18605677 46.03186903 490.18131229 54.00626413 490.203125 62.01953125 C490.21001046 63.58768745 490.21695978 65.15584337 490.22396851 66.72399902 C490.24315264 71.75350132 490.24763389 76.78296581 490.25 81.8125 C490.25132557 83.09119272 490.25132557 83.09119272 490.25267792 84.39571762 C490.27235934 105.73569295 490.1644931 127.01704405 488.625 148.3125 C488.56187622 149.19096588 488.49875244 150.06943176 488.43371582 150.97451782 C486.35671026 178.89866672 481.00107109 201.83756047 463 224 C462.31550781 224.87527344 461.63101562 225.75054687 460.92578125 226.65234375 C451.3534542 238.70179795 440.47220785 249.6107836 429.625 260.5 C428.79315186 261.336521 427.96130371 262.17304199 427.10424805 263.03491211 C422.77273462 267.35515797 418.36245321 271.50552245 413.72412109 275.49414062 C411.5438845 277.39837446 409.51512915 279.42286688 407.5 281.5 C404.95032143 284.12813022 402.33256471 286.58877518 399.55078125 288.96484375 C393.9512908 293.82903441 388.71622016 299.06091654 383.46508789 304.29467773 C381.70843023 306.04168475 379.94135307 307.77767029 378.17382812 309.51367188 C359.35918245 328.15266437 344.10463941 348.31984383 340 375 C270.04 375 200.08 375 128 375 C127.34 370.71 126.68 366.42 126 362 C125.04712921 359.13366164 124.14388828 356.62915694 122.875 353.9375 C122.56933105 353.26759033 122.26366211 352.59768066 121.94873047 351.9074707 C112.66056313 332.18128442 96.49185832 316.30695472 81.22485352 301.09448242 C79.4332405 299.3082533 77.64706945 297.51670653 75.86132812 295.72460938 C70.56478079 290.42530663 65.26565779 285.20300046 59.55883789 280.34057617 C56.96417837 278.10920962 54.62455414 275.64685965 52.25 273.1875 C50.37906729 271.36853765 48.4763641 269.67977869 46.49609375 267.984375 C41.32320502 263.48787649 36.48042576 258.66648258 31.63696289 253.82226562 C30.07391266 252.26139673 28.50302635 250.70872112 26.93164062 249.15625 C21.26360127 243.51934452 15.96183088 237.75962419 10.98413086 231.48828125 C8.88317344 228.85348883 6.70033809 226.3020706 4.5 223.75 C-11.32043231 204.36789968 -17.85774462 183.37610119 -19.625 158.75 C-19.74652456 157.17050564 -19.86891727 155.59107783 -19.9921875 154.01171875 C-20.35019739 149.34240259 -20.69191095 144.67289635 -21 140 C-21.08439331 138.76423721 -21.16878662 137.52847443 -21.2557373 136.25526428 C-21.93211646 125.94418364 -22.17792149 115.67138495 -22.203125 105.33984375 C-22.20595238 104.53588228 -22.20877975 103.73192081 -22.21169281 102.90359688 C-22.22652484 98.64837463 -22.2358546 94.39318489 -22.24023438 90.13793945 C-22.24461254 86.68340456 -22.25850174 83.22912033 -22.28125 79.7746582 C-22.69839254 15.10178539 -22.69839254 15.10178539 -9.1875 1.125 C-5.92236925 -0.5542101 -3.62264505 -0.43721578 0 0 Z " fill="#FFE1BA" transform="translate(22,137)"/>
<path d="M0 0 C4.26256535 3.34554461 8.23970387 6.92625704 11.9453125 10.87890625 C15.41220673 9.38861235 17.636711 7.38255345 20.3203125 4.75390625 C38.43080909 -11.73910821 59.88706387 -14.94236062 83.59814453 -14.29589844 C110.85879163 -12.87222059 135.43086241 2.47636381 153.48583984 22.18554688 C174.54092235 46.61479617 179.49750416 76.61215183 177.9453125 107.87890625 C177.30386988 113.79245287 175.88941725 119.269686 173.9453125 124.87890625 C173.58308594 125.93078125 173.22085937 126.98265625 172.84765625 128.06640625 C163.61194338 152.11056721 145.18448882 171.47142442 124.9453125 186.87890625 C124.24164551 187.41596191 123.53797852 187.95301758 122.81298828 188.50634766 C109.65510045 198.51677957 96.33916098 208.32994358 82.78125 217.79296875 C67.75744657 228.28238591 53.21065511 239.3804731 38.9453125 250.87890625 C37.99140625 251.6471875 37.0375 252.41546875 36.0546875 253.20703125 C28.57273711 259.30160011 21.25121476 265.57556576 13.9453125 271.87890625 C9.92066092 270.20848047 6.92098851 267.41315155 3.6953125 264.56640625 C-9.00358256 253.54608153 -22.05857252 243.2439435 -35.76806641 233.50830078 C-38.81081904 231.340104 -41.83503546 229.14680441 -44.85961914 226.95336914 C-51.3696074 222.23297644 -57.91075585 217.5615958 -64.4921875 212.94140625 C-143.34250643 157.44121671 -143.34250643 157.44121671 -151.64013672 110.03930664 C-152.41616702 104.1231039 -152.43761686 98.21338409 -152.4296875 92.25390625 C-152.42947601 91.59415802 -152.42926453 90.93440979 -152.42904663 90.25466919 C-152.39488883 79.55971709 -151.46971312 70.00122074 -148.0546875 59.87890625 C-147.49394531 58.17154297 -147.49394531 58.17154297 -146.921875 56.4296875 C-136.98539753 28.62729192 -117.25982914 7.48131793 -91.0078125 -5.44116211 C-62.01356199 -19.13172765 -26.61814423 -18.48293135 0 0 Z " fill="#FF6D83" transform="translate(243.0546875,14.12109375)"/>
<path d="M0 0 C6.40271897 3.45746825 8.42055286 9.22575695 10.46826172 15.99609375 C12.20648324 22.54674674 13.14200749 29.28625527 14 36 C14.08846191 36.6796582 14.17692383 37.35931641 14.26806641 38.05957031 C15.18605677 46.03186903 15.18131229 54.00626413 15.203125 62.01953125 C15.21001046 63.58768745 15.21695978 65.15584337 15.22396851 66.72399902 C15.24315264 71.75350132 15.24763389 76.78296581 15.25 81.8125 C15.25132557 83.09119272 15.25132557 83.09119272 15.25267792 84.39571762 C15.27235934 105.73569295 15.1644931 127.01704405 13.625 148.3125 C13.56187622 149.19096588 13.49875244 150.06943176 13.43371582 150.97451782 C11.35671026 178.89866672 6.00107109 201.83756047 -12 224 C-12.68449219 224.87527344 -13.36898437 225.75054687 -14.07421875 226.65234375 C-23.6465458 238.70179795 -34.52779215 249.6107836 -45.375 260.5 C-46.20684814 261.336521 -47.03869629 262.17304199 -47.89575195 263.03491211 C-52.22726538 267.35515797 -56.63754679 271.50552245 -61.27587891 275.49414062 C-63.4561155 277.39837446 -65.48487085 279.42286688 -67.5 281.5 C-70.04967857 284.12813022 -72.66743529 286.58877518 -75.44921875 288.96484375 C-81.0487092 293.82903441 -86.28377984 299.06091654 -91.53491211 304.29467773 C-93.29156977 306.04168475 -95.05864693 307.77767029 -96.82617188 309.51367188 C-115.64081755 328.15266437 -130.89536059 348.31984383 -135 375 C-169.98 375 -204.96 375 -241 375 C-241.16121214 342.16198334 -241.16121214 342.16198334 -241.1953125 328.29492188 C-241.21895453 318.7579681 -241.24659382 309.22115671 -241.30175781 299.68432617 C-241.34193196 292.73558201 -241.3675045 285.78695448 -241.37635398 278.83809739 C-241.38151769 275.16695938 -241.39344048 271.49615469 -241.42292023 267.82512474 C-241.65028214 238.34128104 -238.52040834 212.6787493 -217.6875 190.1875 C-188.33115245 163.00569672 -133.53912371 138.43287011 -93.57421875 138.78515625 C-87.78879251 139.13291411 -84.83768731 140.6816591 -80.125 144.0625 C-77.05328452 148.30869493 -76.64704437 151.8209164 -77 157 C-78.73183116 165.59124085 -82.6190238 172.19920968 -88 179 C-88.42667969 179.59039062 -88.85335937 180.18078125 -89.29296875 180.7890625 C-97.98430065 192.07442269 -112.21956047 200.14521892 -123.68554688 208.34277344 C-127.46587146 211.04961345 -131.23228454 213.7756519 -135 216.5 C-136.48041306 217.56908754 -137.96088204 218.63809764 -139.44140625 219.70703125 C-142.63780614 222.01542629 -145.83289787 224.32562051 -149.02734375 226.63671875 C-149.84912109 227.23097656 -150.67089844 227.82523438 -151.51757812 228.4375 C-153.09602805 229.57897791 -154.67416785 230.72088482 -156.25195312 231.86328125 C-156.96158203 232.37632812 -157.67121094 232.889375 -158.40234375 233.41796875 C-159.33808228 234.09508911 -159.33808228 234.09508911 -160.29272461 234.78588867 C-161.84109387 235.88699554 -163.41912991 236.94608661 -165 238 C-163.38566271 243.13561051 -160.23165572 246.97643918 -157 251.1875 C-156.4534375 251.91130859 -155.906875 252.63511719 -155.34375 253.38085938 C-152.34496935 257.33907756 -152.34496935 257.33907756 -149 261 C-148.54898926 260.67427002 -148.09797852 260.34854004 -147.63330078 260.01293945 C-146.2608343 259.02171366 -144.8883559 258.03050437 -143.51586914 257.03930664 C-141.89778232 255.87064248 -140.27978353 254.70185644 -138.66186523 253.53295898 C-134.59818606 250.59731798 -130.53347686 247.66314716 -126.46484375 244.734375 C-116.35898483 237.4560969 -106.30291129 230.11338415 -96.29736328 222.69775391 C-94.04629141 221.0342094 -91.78755465 219.38156604 -89.52734375 217.73046875 C-65.97861294 200.45083912 -48.96930358 176.2534023 -43.46484375 147.14135742 C-42.49101237 140.56032361 -41.99845345 133.9229999 -41.42633057 127.29721069 C-32.12027114 20.7389062 -32.12027114 20.7389062 -11.4140625 2.75390625 C-7.41079101 -0.15461948 -4.98895041 -0.49889504 0 0 Z " fill="#FFBFAB" transform="translate(497,137)"/>
<path d="M0 0 C22.91915593 17.55201182 38.41300899 42.40852502 42.53125 71.203125 C43.40563032 87.2929289 43.85958288 103.82957438 38.53125 119.203125 C38.16902344 120.255 37.80679688 121.306875 37.43359375 122.390625 C28.19788088 146.43478596 9.77042632 165.79564317 -10.46875 181.203125 C-11.17241699 181.74018066 -11.87608398 182.27723633 -12.60107422 182.83056641 C-25.75896205 192.84099832 -39.07490152 202.65416233 -52.6328125 212.1171875 C-72.77342113 226.17908912 -92.36268263 241.19072099 -110.984375 257.21875 C-111.57436279 257.72494873 -112.16435059 258.23114746 -112.7722168 258.75268555 C-113.92848539 259.74718887 -115.08111736 260.74593893 -116.22973633 261.74926758 C-120.24738791 265.203125 -120.24738791 265.203125 -122.46875 265.203125 C-122.46875 230.883125 -122.46875 196.563125 -122.46875 161.203125 C-117.51875 161.203125 -112.56875 161.203125 -107.46875 161.203125 C-107.46875 151.303125 -107.46875 141.403125 -107.46875 131.203125 C-97.56875 131.203125 -87.66875 131.203125 -77.46875 131.203125 C-77.46875 121.303125 -77.46875 111.403125 -77.46875 101.203125 C-87.36875 101.203125 -97.26875 101.203125 -107.46875 101.203125 C-107.46875 91.303125 -107.46875 81.403125 -107.46875 71.203125 C-112.41875 71.203125 -117.36875 71.203125 -122.46875 71.203125 C-122.6727718 62.88356921 -122.83757597 54.56598421 -122.93505955 46.24459171 C-122.98186765 42.37980166 -123.04525568 38.51682343 -123.14770508 34.65307617 C-123.2461092 30.91815586 -123.29943062 27.18496796 -123.32264519 23.44885063 C-123.3391683 22.02976659 -123.37143752 20.61076861 -123.42032051 19.1924305 C-123.78610806 8.13062273 -123.78610806 8.13062273 -120.52526855 3.35951233 C-118.28083383 1.08033142 -116.02956085 -0.8852603 -113.46875 -2.796875 C-112.8755748 -3.2663858 -112.2823996 -3.73589661 -111.67124939 -4.21963501 C-78.37101169 -29.22648125 -32.30414767 -23.51251255 0 0 Z " fill="#FF3B7F" transform="translate(378.46875,19.796875)"/>
<path d="M0 0 C9.9 0 19.8 0 30 0 C30 9.9 30 19.8 30 30 C39.9 30 49.8 30 60 30 C60 39.9 60 49.8 60 60 C50.1 60 40.2 60 30 60 C30 69.9 30 79.8 30 90 C20.1 90 10.2 90 0 90 C0 80.1 0 70.2 0 60 C-9.9 60 -19.8 60 -30 60 C-30 50.1 -30 40.2 -30 30 C-20.1 30 -10.2 30 0 30 C0 20.1 0 10.2 0 0 Z " fill="#FFBFAB" transform="translate(241,91)"/>
<path d="M0 0 C4.95 0 9.9 0 15 0 C15 29.7 15 59.4 15 90 C10.05 90 5.1 90 0 90 C0 80.1 0 70.2 0 60 C-9.9 60 -19.8 60 -30 60 C-30 50.1 -30 40.2 -30 30 C-20.1 30 -10.2 30 0 30 C0 20.1 0 10.2 0 0 Z " fill="#FFE1BA" transform="translate(241,91)"/>
</svg>
